<svg width="26" height="21" viewBox="0 0 26 21" fill="none" xmlns="http://www.w3.org/2000/svg">
<path d="M9.08434 16.2891C9.43035 16.2891 9.71084 16.5696 9.71084 16.9156C9.71084 17.2616 9.43035 17.5421 9.08434 17.5421H0.626506C0.280496 17.5421 0 17.2616 0 16.9156C0 16.5696 0.280496 16.2891 0.626506 16.2891H9.08434Z" fill="#D57093"/>
<path d="M25.3734 16.2891C25.7194 16.2891 25.9999 16.5696 25.9999 16.9156C25.9999 17.2616 25.7194 17.5421 25.3734 17.5421H14.2007C13.8547 17.5421 13.5742 17.2616 13.5742 16.9156C13.5742 16.5696 13.8547 16.2891 14.2007 16.2891H25.3734Z" fill="#D57093"/>
<path d="M13.3657 17.0198C13.3657 16.0395 12.571 15.2447 11.5906 15.2447C10.6103 15.2447 9.81551 16.0395 9.81551 17.0198C9.81551 18.0002 10.6103 18.7949 11.5906 18.7949C12.571 18.7949 13.3657 18.0002 13.3657 17.0198ZM14.6187 17.0198C14.6187 18.6922 13.263 20.0479 11.5906 20.0479C9.91823 20.0479 8.5625 18.6922 8.5625 17.0198C8.5625 15.3474 9.91823 13.9917 11.5906 13.9917C13.263 13.9917 14.6187 15.3474 14.6187 17.0198Z" fill="#D57093"/>
<path d="M17.2289 9.18896C17.5749 9.18896 17.8554 9.46946 17.8554 9.81547C17.8554 10.1615 17.5749 10.442 17.2289 10.442H0.626506C0.280496 10.442 0 10.1615 0 9.81547C0 9.46946 0.280496 9.18896 0.626506 9.18896H17.2289Z" fill="#D57093"/>
<path d="M5.22088 2.29712C5.56689 2.29712 5.84739 2.57762 5.84739 2.92363C5.84739 3.26963 5.56689 3.55013 5.22088 3.55013H0.626506C0.280496 3.55013 0 3.26963 0 2.92363C0 2.57762 0.280496 2.29712 0.626506 2.29712H5.22088Z" fill="#D57093"/>
<path d="M25.3734 2.29712C25.7194 2.29712 25.9999 2.57762 25.9999 2.92363C25.9999 3.26963 25.7194 3.55013 25.3734 3.55013H10.1285C9.78245 3.55013 9.50195 3.26963 9.50195 2.92363C9.50195 2.57762 9.78245 2.29712 10.1285 2.29712H25.3734Z" fill="#D57093"/>
<path d="M9.39745 3.02811C9.39745 2.04775 8.60271 1.25301 7.62235 1.25301C6.64199 1.25301 5.84725 2.04775 5.84725 3.02811C5.84725 4.00847 6.64199 4.80321 7.62235 4.80321C8.60271 4.80321 9.39745 4.00847 9.39745 3.02811ZM10.6505 3.02811C10.6505 4.70049 9.29473 6.05622 7.62235 6.05622C5.94997 6.05622 4.59424 4.70049 4.59424 3.02811C4.59424 1.35573 5.94997 0 7.62235 0C9.29473 0 10.6505 1.35573 10.6505 3.02811Z" fill="#D57093"/>
<path d="M25.3734 9.18896C25.7194 9.18896 25.9999 9.46946 25.9999 9.81547C25.9999 10.1615 25.7194 10.442 25.3734 10.442H22.3453C21.9992 10.442 21.7188 10.1615 21.7188 9.81547C21.7188 9.46946 21.9992 9.18896 22.3453 9.18896H25.3734Z" fill="#D57093"/>
<path d="M21.5098 9.91971C21.5098 8.93935 20.715 8.14461 19.7347 8.14461C18.7543 8.14461 17.9596 8.93935 17.9596 9.91971C17.9596 10.9001 18.7543 11.6948 19.7347 11.6948C20.715 11.6948 21.5098 10.9001 21.5098 9.91971ZM22.7628 9.91971C22.7628 11.5921 21.407 12.9478 19.7347 12.9478C18.0623 12.9478 16.7065 11.5921 16.7065 9.91971C16.7065 8.24733 18.0623 6.8916 19.7347 6.8916C21.407 6.8916 22.7628 8.24733 22.7628 9.91971Z" fill="#D57093"/>
</svg>
