<svg width="1288" height="387" viewBox="0 0 1288 387" fill="none" xmlns="http://www.w3.org/2000/svg">
<path d="M1288 319.527L1287.99 320.399C1287.38 357.262 1247.64 387 1198.71 387C1163.2 387 1132.53 371.334 1118.15 348.649C1103.76 371.334 1073.09 387 1037.58 387C1002.9 387 972.83 372.053 958.046 350.217C943.262 372.053 913.195 387 878.508 387C842.997 387 812.329 371.334 797.943 348.649C783.558 371.334 752.89 387 717.38 387C684.951 387 656.56 373.935 640.921 354.391C625.282 373.935 596.891 387 564.462 387C528.951 387 498.283 371.334 483.897 348.649C469.512 371.334 438.844 387 403.334 387C370.905 387 342.514 373.935 326.875 354.391C311.236 373.935 282.845 387 250.416 387C214.905 387 184.237 371.334 169.852 348.649C155.466 371.334 124.799 387 89.2881 387C40.3613 387 0.624909 357.262 0.00683594 320.399L0 319.527V0H1288V319.527Z" fill="#FFCDC6"/>
</svg>
