<svg width="46" height="49" viewBox="0 0 46 49" fill="none" xmlns="http://www.w3.org/2000/svg">
<path d="M23.0464 24C25.2479 24 26.7344 24.7953 27.6848 25.8226C28.6229 26.8368 29.0168 28.0534 29.091 28.8845C29.1117 29.1165 28.9408 29.3208 28.7087 29.3416C28.4767 29.3622 28.2724 29.1913 28.2517 28.9592C28.192 28.2905 27.8623 27.2568 27.0663 26.3961C26.2823 25.5486 25.0231 24.8438 23.0464 24.8438C21.0696 24.8438 19.8104 25.5486 19.0265 26.3961C18.2305 27.2568 17.9008 28.2905 17.841 28.9592C17.8203 29.1913 17.616 29.3622 17.384 29.3416C17.152 29.3208 16.981 29.1165 17.0017 28.8845C17.0759 28.0534 17.4698 26.8368 18.4079 25.8226C19.3584 24.7953 20.8449 24 23.0464 24Z" fill="black"/>
<path d="M25.75 18.7969C25.75 17.1659 24.4278 15.8438 22.7969 15.8438C21.1659 15.8438 19.8438 17.1659 19.8438 18.7969C19.8438 20.4278 21.1659 21.75 22.7969 21.75C24.4278 21.75 25.75 20.4278 25.75 18.7969ZM26.5938 18.7969C26.5938 20.8938 24.8938 22.5938 22.7969 22.5938C20.6999 22.5938 19 20.8938 19 18.7969C19 16.6999 20.6999 15 22.7969 15C24.8938 15 26.5938 16.6999 26.5938 18.7969Z" fill="black"/>
</svg>
