<svg width="46" height="49" viewBox="0 0 46 49" fill="none" xmlns="http://www.w3.org/2000/svg">
<path d="M30.875 24.8594C30.875 20.4325 27.2863 16.8438 22.8594 16.8438C18.4325 16.8438 14.8438 20.4325 14.8438 24.8594C14.8438 29.2863 18.4325 32.875 22.8594 32.875C27.2863 32.875 30.875 29.2863 30.875 24.8594ZM31.7188 24.8594C31.7188 29.7523 27.7523 33.7188 22.8594 33.7188C17.9665 33.7188 14 29.7523 14 24.8594C14 19.9665 17.9665 16 22.8594 16C27.7523 16 31.7188 19.9665 31.7188 24.8594Z" fill="black"/>
<path d="M21.7461 28.9344C21.7461 28.6434 21.8398 28.4025 22.027 28.2117C22.2143 28.0209 22.445 27.9255 22.719 27.9255C23.0113 27.9255 23.2511 28.0209 23.4384 28.2117C23.6302 28.4025 23.7261 28.6434 23.7261 28.9344C23.7261 29.2159 23.6302 29.452 23.4384 29.6428C23.2511 29.8289 23.0113 29.9219 22.719 29.9219C22.445 29.9219 22.2143 29.8289 22.027 29.6428C21.8398 29.452 21.7461 29.2159 21.7461 28.9344ZM20.0471 22.6018C20.0425 22.0675 20.1247 21.6215 20.2937 21.2637C20.4627 20.9012 20.6888 20.615 20.972 20.4051C21.2551 20.1904 21.5634 20.0354 21.8969 19.94C22.2349 19.8446 22.5706 19.7969 22.904 19.7969C23.3744 19.7969 23.8198 19.8875 24.24 20.0688C24.6648 20.2453 25.0096 20.5148 25.2745 20.8774C25.5394 21.2399 25.6719 21.7002 25.6719 22.2584C25.6719 22.6543 25.6056 22.993 25.4732 23.2744C25.3407 23.5511 25.174 23.792 24.9731 23.9971C24.7721 24.2023 24.562 24.3955 24.3427 24.5767C24.0824 24.7962 23.8723 24.9846 23.7124 25.142C23.5571 25.2947 23.443 25.4569 23.3699 25.6286C23.3014 25.8003 23.2671 26.0245 23.2671 26.3012V26.7305H22.0682L22.0613 26.1295C22.0567 25.786 22.1161 25.4855 22.2394 25.2279C22.3628 24.9703 22.5249 24.7389 22.7259 24.5338C22.9268 24.3287 23.1392 24.1331 23.363 23.9471C23.6827 23.6799 23.9362 23.4366 24.1235 23.2172C24.3108 22.9978 24.4044 22.702 24.4044 22.3299C24.4044 21.9865 24.329 21.7098 24.1783 21.4999C24.0322 21.29 23.8403 21.1373 23.6028 21.0419C23.3699 20.9418 23.1187 20.8917 22.8492 20.8917C22.5751 20.8917 22.3353 20.937 22.1298 21.0276C21.9288 21.1135 21.7621 21.2351 21.6297 21.3925C21.4972 21.5452 21.3967 21.7265 21.3282 21.9364C21.2597 22.1415 21.2255 22.3633 21.2255 22.6018H20.0471Z" fill="black"/>
</svg>
