<svg width="46" height="49" viewBox="0 0 46 49" fill="none" xmlns="http://www.w3.org/2000/svg">
<path d="M21.3125 16C25.3511 16 28.625 19.2739 28.625 23.3125C28.625 25.1294 27.96 26.7895 26.8633 28.0684L31.2725 32.4775C31.4921 32.6972 31.4921 33.0528 31.2725 33.2725C31.0528 33.4921 30.6972 33.4921 30.4775 33.2725L26.0684 28.8633C24.7895 29.96 23.1294 30.625 21.3125 30.625C17.2739 30.625 14 27.3511 14 23.3125C14 19.2739 17.2739 16 21.3125 16ZM21.3125 17.125C17.8952 17.125 15.125 19.8952 15.125 23.3125C15.125 26.7298 17.8952 29.5 21.3125 29.5C24.7298 29.5 27.5 26.7298 27.5 23.3125C27.5 19.8952 24.7298 17.125 21.3125 17.125Z" fill="black"/>
</svg>
